<svg xmlns="http://www.w3.org/2000/svg" viewBox="0 0 24 24" fill="currentColor">
  <path d="M15.93 12.86c-.1-.31-.19-.61-.19-.9 0-.66.34-1.26.85-1.62L17 9.5c.66-.55 1.08-1.36 1.08-2.23 0-1.76-1.46-3.18-3.25-3.18-1.79 0-3.25 1.42-3.25 3.18 0 .87.42 1.68 1.08 2.23l.41.34c.51.36.85.96.85 1.62 0 .29-.09.59-.19.9-.1.31-.19.61-.19.9 0 .66.34 1.26.85 1.62l.41.34c.66.55 1.08 1.36 1.08 2.23 0 1.76-1.46 3.18-3.25 3.18-1.79 0-3.25-1.42-3.25-3.18 0-.87.42-1.68 1.08-2.23l.41-.34c.51-.36.85-.96.85-1.62 0-.29-.09-.59-.19-.9z"/>
</svg> 