<svg xmlns="http://www.w3.org/2000/svg" viewBox="0 0 697 166"><defs><style>      .cls-1 {        fill: none;      }      .cls-2 {        fill: #ffffff;      }    </style></defs><g><g id="Capa_1"><path class="cls-2" d="M502.7,93.8c-7,26.2-45.4,23.5-45.6-8.7,0-32.1,37.8-35.1,45.4-9.6h43.6v18.3h-43.4ZM222.3,104.1l8.9-38.4,9.2,38.4h-18.1ZM632.9,8.5v51.2h-27.3V8.5h-59.6v29.7c-30.3-43.7-102.5-44.2-133.5-1.3V8.5h-124.6v47.8h32.5v90.3L265.1,6.7h-67.4l-34.5,87h-52.6c-7,26.2-45.4,23.5-45.6-8.7,0-32.1,37.8-35.1,45.4-9.6h56.9C157.5-21.4,6.3-18.6,5.9,85.1c.3,80.5,92.4,99.5,137.5,58.5l-4.7,11.8v5.9h61.7l6.5-17.6h48.5l6.8,17.6h117.8V56.2h22.5c-2.9,8.5-4.6,18.2-4.6,28.8.4,87.4,109.1,102.3,148.1,46.4v29.7h59.6v-53.3h27.3v53.3h59.3V8.5h-59.3Z"></path><rect class="cls-1" x="5.8" y="5" width="686.2" height="159.8"></rect></g></g></svg>
