<svg xmlns="http://www.w3.org/2000/svg" width="24" height="24" viewBox="0 0 24 24" fill="none" stroke="currentColor" stroke-width="2" stroke-linecap="round" stroke-linejoin="round" class="lucide lucide-image-off"><path d="M21.14 2.86a2 2 0 0 0-2.82 0L2 19.33a2 2 0 0 0 2.82 2.82L21.14 2.86z"/><path d="m2 14 4-4 1.33-1.33c.1-.1.24-.16.38-.18s.28-.01.42.04.27.15.38.26l.4.42c.1.1.24.16.38.18s.28.01.42-.04.27-.15.38-.26l2.5-2.5"/><path d="M14 2a2 2 0 0 1 2 2v2M14 14a2 2 0 0 1-2-2v-.5M7 7l.82-1.64a2 2 0 0 1 3.36 0L12 7"/></svg> 