<svg width="536" height="502" viewBox="0 0 536 502" fill="none" xmlns="http://www.w3.org/2000/svg">
<g clip-path="url(#clip0_565_317)">
<path d="M243.383 102.862L110.117 132.809L123.736 193.415L257.003 163.468L243.383 102.862Z" fill="#090E19"/>
<path d="M337.79 63.7771L125.576 111.465L138.558 169.235L350.772 121.547L337.79 63.7771Z" fill="#090E19"/>
<path d="M179.754 79.0185L140.994 87.7285L147.649 117.345L186.41 108.635L179.754 79.0185Z" fill="#090E19"/>
<path d="M309.953 30.7011L250.268 44.1133L264.021 105.316L323.706 91.9042L309.953 30.7011Z" fill="#090E19"/>
<path d="M333.36 44.1491L217.965 70.0801L235.356 147.474L350.751 121.543L333.36 44.1491Z" fill="#090E19"/>
<path d="M366.586 96.03L343.348 101.252L378.728 258.696L401.966 253.474L366.586 96.03Z" fill="#090E19"/>
<path d="M452.27 119.607L335.375 145.875L348.003 202.073L464.898 175.805L452.27 119.607Z" fill="#090E19"/>
<path d="M474.992 133.196L456.271 137.402L461.043 158.635L479.763 154.428L474.992 133.196Z" fill="#090E19"/>
<path d="M363.504 158.607L223.01 190.178L231.704 228.866L372.198 197.294L363.504 158.607Z" fill="#090E19"/>
<path d="M229.992 208.399L71.7891 243.949L85.1241 303.291L243.327 267.741L229.992 208.399Z" fill="#090E19"/>
<path d="M291.783 211.87L228.303 226.135L234.024 251.595L297.504 237.331L291.783 211.87Z" fill="#090E19"/>
<path d="M92.6338 257.992L38.8574 270.076L44.0794 293.314L97.8557 281.23L92.6338 257.992Z" fill="#090E19"/>
<path d="M123.734 191.784L103.531 196.324L114.495 245.113L134.697 240.573L123.734 191.784Z" fill="#090E19"/>
<path d="M89.7085 283.088L62.9648 289.098L67.0701 307.366L93.8137 301.357L89.7085 283.088Z" fill="#090E19"/>
<path d="M144.972 283.584L122.764 288.574L128.31 313.258L150.518 308.267L144.972 283.584Z" fill="#090E19"/>
<path d="M263.583 322.412L198.908 336.945L203.456 357.184L268.131 342.65L263.583 322.412Z" fill="#090E19"/>
<path d="M303.538 350.587L227.518 367.67L232.065 387.908L308.086 370.825L303.538 350.587Z" fill="#090E19"/>
<path d="M183.417 268.009L200.5 344.029L220.738 339.481L203.655 263.461L183.417 268.009Z" fill="#090E19"/>
<path d="M147.763 306.895L164.846 382.916L185.084 378.368L168.001 302.348L147.763 306.895Z" fill="#090E19"/>
<path d="M207.634 372.112L182.824 377.688L192.375 420.188L217.185 414.613L207.634 372.112Z" fill="#090E19"/>
<path d="M231.742 405.773L209.715 410.723L218.888 451.543L240.915 446.593L231.742 405.773Z" fill="#090E19"/>
<path d="M257.955 421.961L236.271 426.834L245.282 466.929L266.966 462.057L257.955 421.961Z" fill="#090E19"/>
<path d="M357.452 421.843L247.785 446.486L252.024 465.351L361.691 440.708L357.452 421.843Z" fill="#090E19"/>
<path d="M373.416 396.314L350.088 401.557L355.33 424.885L378.659 419.643L373.416 396.314Z" fill="#090E19"/>
<path d="M387.709 372.258L364.381 377.5L369.623 400.828L392.951 395.586L387.709 372.258Z" fill="#090E19"/>
<path d="M403.678 347.963L380.35 353.205L385.592 376.533L408.92 371.291L403.678 347.963Z" fill="#090E19"/>
<path d="M428.545 283.719L405.217 288.961L410.459 312.289L433.787 307.047L428.545 283.719Z" fill="#090E19"/>
<path d="M443.016 260.779L419.688 266.021L424.93 289.35L448.258 284.108L443.016 260.779Z" fill="#090E19"/>
<path d="M444.354 176.363L423.23 181.109L441.804 263.762L462.928 259.015L444.354 176.363Z" fill="#090E19"/>
<path d="M407.333 187.718L386.209 192.465L395.715 234.767L416.839 230.02L407.333 187.718Z" fill="#090E19"/>
<path d="M420.321 164.279L399.197 169.025L408.703 211.327L429.827 206.58L420.321 164.279Z" fill="#090E19"/>
<path d="M414.024 306.299L390.695 311.541L399.99 352.903L423.318 347.661L414.024 306.299Z" fill="#090E19"/>
</g>
<defs>
<clipPath id="clip0_565_317">
<rect width="455.515" height="411.436" fill="white" transform="translate(0.683594 100.199) rotate(-12.6648)"/>
</clipPath>
</defs>
</svg>
